<?xml version="1.0" encoding="UTF-8"?>
<svg xmlns="http://www.w3.org/2000/svg" version="1.1" viewBox="0 0 424 368">
  <defs>
    <style>
      .cls-1 {
        fill: #9e0044;
      }
    </style>
  </defs>
  <!-- Generator: Adobe Illustrator 28.6.0, SVG Export Plug-In . SVG Version: 1.2.0 Build 709)  -->
  <g>
    <g id="Capa_2">
      <g id="Capa_1-2">
        <path class="cls-1" d="M123.8,0h180.8v11.3c-24.9,0-45.6,20.3-45.2,45.2l1.8,196.6c.5,75.9-64.2,113.4-129.7,114.8C66,369.3,0,334.9,0,267.1s12.2-45.2,31.2-52.4c39.3-14,63.7,38,23.9,56.5-6.8,3.2-14,9.9-14.9,19.4-5.4,74.1,127,55.6,127-39.3s1.8-194.8,1.8-194.8c0-24.9-20.3-45.2-45.2-45.2V0h0Z"/>
        <path class="cls-1" d="M356,228c-37.6,0-68,30.4-68,68s30.4,68,68,68,68-30.4,68-68-30.4-68-68-68h0ZM359.8,251.4c1.3-4,9.9-6.1,15.1-2.5,2.3,1.6,4.6,5,3.8,7.5-1.4,4-10.7,5.9-15.7,1.9-1.8-1.5-3.9-4.4-3.1-6.9h0ZM326.2,254.8c2.1-2.1,5.8-5.8,9.4-4.4,3,1.1,4.6,5.3,3.8,8.8-1.1,4.8-6.4,6.2-6.9,6.3-4,.9-9.3-.7-10-3.8-.6-2.5,1.9-5.1,3.8-6.9h0ZM318.5,305.6c-3.9,1.2-9.3.3-11.9-3.8-1.9-2.9-2.3-7.3,0-10,2-2.5,5.3-2.5,9.4-2.5,4.1,0,8.4,0,10,2.5,2.3,3.6-1.2,11.8-7.5,13.8ZM333.6,341.9c-4.8-.6-9.8-4.8-9.4-9.4.3-3.4,3.4-6,6.3-6.9,6.5-1.9,15,4.3,14.4,9.4-.4,3.9-6,7.5-11.3,6.9ZM356.4,304.2c-.8-.3-5.5-2.1-6.6-6.6-1.3-5.4,3.7-9.9,4.6-10.7.3-.3,8-7,14.3-3.1,4.7,2.9,5.6,9.9,3.1,14.8-3,5.8-10.2,7.5-15.3,5.6h0ZM382.7,340.4c-3.9,1.2-9.3.3-11.9-3.8-1.9-2.9-2.3-7.3,0-10,2-2.5,5.3-2.5,9.4-2.5,4.1,0,8.4,0,10,2.5,2.3,3.6-1.2,11.8-7.5,13.8ZM407.4,301.6c-4.1,2.8-9.3-.2-10-.6-3.2-1.9-6.8-6.1-5.6-10,1.4-4.7,8.9-6.8,13.8-4.4.4.2,4.1,2.1,5,6.3.6,3-.2,6.8-3.1,8.8h0Z"/>
      </g>
    </g>
  </g>
</svg>